<svg width="512" height="512" viewBox="0 0 512 512" fill="none" xmlns="http://www.w3.org/2000/svg">
<path d="M0 120C0 53.7258 53.7258 0 120 0H392C458.274 0 512 53.7258 512 120V392C512 458.274 458.274 512 392 512H120C53.7258 512 0 458.274 0 392V120Z" fill="black"/>
<g clip-path="url(#clip0_1_41)">
<path d="M285.479 90.6502C283.086 90.6502 280.859 91.162 278.797 91.8537C283.169 94.7587 285.576 98.632 286.765 103.003C286.862 103.598 287.028 104.027 287.111 104.622C287.214 105.132 287.274 105.651 287.291 106.171C287.623 113.71 285.313 114.665 283.694 119.119C281.204 124.86 281.896 131.03 284.884 135.996C285.158 136.662 285.501 137.297 285.908 137.891C282.657 116.2 300.751 112.95 304.085 106.171C304.348 100.251 299.464 96.308 295.605 93.569C292.572 91.6632 289.061 90.6559 285.479 90.664V90.6502ZM312.744 95.5333C312.412 97.5115 312.661 96.9997 312.578 98.0233C312.495 98.715 312.495 99.5727 312.412 100.251C312.233 100.942 312.067 101.634 311.804 102.312C311.638 103.003 311.389 103.695 311.112 104.373L310.185 106.337C309.909 106.683 309.756 107.029 309.494 107.375L308.982 108.136C308.574 108.723 308.145 109.295 307.695 109.851C307.183 110.377 306.755 110.971 306.146 111.4V111.483C305.634 111.912 305.122 112.424 304.514 112.867C302.715 114.236 300.668 115.26 298.773 116.546C298.178 116.961 297.569 117.321 297.057 117.833C296.475 118.242 295.929 118.7 295.425 119.202C294.83 119.714 294.401 120.226 293.89 120.835C293.461 121.346 292.949 121.941 292.603 122.55C292.172 123.129 291.771 123.729 291.4 124.348C291.054 125.04 290.805 125.635 290.459 126.313C290.196 127.004 289.947 127.599 289.767 128.291C289.54 128.997 289.342 129.712 289.172 130.435C289.089 130.781 289.089 131.21 289.006 131.542C288.91 131.887 288.91 132.233 288.827 132.579C288.827 133.271 288.744 134.032 288.744 134.723C288.744 135.235 288.744 135.747 288.827 136.259C288.827 136.95 288.91 137.642 289.089 138.403C289.172 139.095 289.338 139.786 289.504 140.478C289.781 141.156 289.947 141.834 290.196 142.525C290.376 142.94 290.625 143.383 290.805 143.729L271.078 136.093C267.745 135.152 264.48 134.294 261.132 133.52L255.737 132.233C250.591 131.21 245.362 130.435 240.133 129.923C239.953 129.923 239.87 129.84 239.704 129.84C230.869 128.955 221.973 128.839 213.117 129.494C207.888 129.84 202.659 130.518 197.43 131.376C193.544 132.045 189.682 132.848 185.851 133.783L181.992 134.806C180.719 135.318 179.502 135.913 178.312 136.439L175.476 137.725C175.31 137.808 175.144 137.808 175.061 137.891C174.19 138.32 173.429 138.666 172.654 139.095C171.54 139.586 170.451 140.131 169.39 140.727C168.795 140.976 168.2 141.322 167.674 141.585C167.429 141.737 167.175 141.876 166.913 142C166.139 142.442 165.364 142.871 164.672 143.3C163.966 143.69 163.283 144.12 162.625 144.586C162.016 145.001 161.422 145.347 160.91 145.776C160.827 145.873 160.73 145.873 160.647 145.956C160.135 146.302 159.54 146.731 159.015 147.159L158.849 147.325L157.562 148.349C157.396 148.446 157.216 148.612 157.05 148.695C156.621 149.041 156.193 149.47 155.764 149.802C155.681 149.981 155.501 150.078 155.418 150.147C154.906 150.673 154.394 151.102 153.882 151.614C153.786 151.614 153.786 151.697 153.703 151.78C153.169 152.246 152.657 152.735 152.167 153.246C152.07 153.329 152.07 153.412 151.987 153.412C151.537 153.853 151.108 154.314 150.701 154.795C150.535 154.961 150.286 155.127 150.106 155.293C149.646 155.837 149.157 156.354 148.64 156.843C148.557 157.009 148.391 157.106 148.308 157.258C147.616 157.949 147.021 158.641 146.329 159.333L146.08 159.582C144.697 161.048 143.245 162.501 141.695 163.787C140.16 165.17 138.527 166.443 136.895 167.564C133.618 169.905 130.08 171.859 126.354 173.387C124.556 174.162 122.661 174.854 120.779 175.449C117.183 176.223 113.489 177.676 110.321 177.939C109.63 177.939 108.869 178.105 108.177 178.188L106.033 178.699L103.972 179.474C103.28 179.737 102.602 180.083 101.924 180.415C101.316 180.844 100.638 181.189 100.029 181.618C99.4189 182.06 98.8452 182.55 98.3139 183.085C97.719 183.5 97.1104 184.108 96.5985 184.62C96.0867 185.215 95.5749 185.727 95.146 186.335C94.7172 187.027 94.2054 187.622 93.8595 188.314C93.4089 188.937 93.0066 189.593 92.656 190.278C92.3102 191.053 91.9644 191.744 91.7154 192.505C91.4525 193.197 91.2035 193.971 90.9407 194.732C90.7747 195.424 90.5949 196.116 90.5257 196.807C90.5257 196.876 90.4289 196.973 90.4289 197.056C90.2629 197.831 90.2629 198.855 90.166 199.366C90.083 199.975 90 200.473 90 201.082C89.9841 202.573 90.3357 204.046 91.0237 205.37V205.453C91.2865 205.965 91.6324 206.491 91.9782 207.002C92.3102 207.514 92.6699 208.026 93.0849 208.538C93.5137 208.967 94.0255 209.492 94.5512 209.921C95.051 210.423 95.5925 210.881 96.1697 211.291C98.2309 213.089 98.7427 213.684 101.399 215.053C101.828 215.316 102.256 215.482 102.782 215.745C102.865 215.745 102.948 215.828 103.031 215.828C103.031 216.008 103.031 216.091 103.114 216.257C103.314 217.671 103.686 219.055 104.221 220.379C104.497 220.891 104.663 221.403 104.912 221.915C105.009 222.095 105.092 222.261 105.189 222.344C105.521 223.035 105.867 223.63 106.199 224.239L107.485 226.037C107.914 226.549 108.44 227.144 108.952 227.669C109.464 228.181 109.975 228.61 110.584 229.122C110.584 229.122 110.667 229.205 110.75 229.205C111.262 229.634 111.774 230.063 112.299 230.408C112.896 230.827 113.525 231.197 114.181 231.515C114.776 231.861 115.467 232.207 116.145 232.47C116.698 232.719 117.272 232.918 117.86 233.064C117.957 233.147 118.04 233.147 118.206 233.23C118.552 233.327 118.981 233.41 119.313 233.493C119.064 238.127 118.981 242.485 119.673 244.034C120.433 245.75 124.21 240.521 127.973 234.517C127.475 240.438 127.129 247.382 127.973 249.443C128.927 251.587 134.059 244.892 138.527 237.519C199.325 223.464 254.797 265.462 260.62 324.807C259.514 315.539 248.101 310.407 242.872 311.693C240.299 318.029 235.928 326.176 228.901 331.239C229.495 325.568 229.246 319.758 228.043 314.086C226.123 321.981 222.491 329.358 217.405 335.694C209.271 336.289 201.123 332.346 196.835 326.425C196.489 326.176 196.406 325.665 196.143 325.319C195.894 324.724 195.631 324.115 195.452 323.521C195.203 322.946 195.031 322.341 194.94 321.722C194.857 321.113 194.857 320.519 194.857 319.827V318.54C194.959 317.932 195.102 317.331 195.286 316.742C195.465 316.147 195.631 315.552 195.894 314.944C196.226 314.349 196.489 313.74 196.918 313.146C198.37 309.023 198.37 305.676 195.714 303.711C195.199 303.374 194.652 303.087 194.082 302.854C193.75 302.771 193.321 302.605 192.975 302.508L192.284 302.259C191.696 302.069 191.095 301.925 190.485 301.83C189.901 301.659 189.296 301.57 188.687 301.567C188.064 301.469 187.436 301.414 186.806 301.401C186.377 301.401 185.948 301.484 185.519 301.484C184.878 301.48 184.24 301.569 183.624 301.747C183.029 301.83 182.434 301.913 181.826 302.079C181.214 302.243 180.613 302.446 180.027 302.688C179.433 302.937 178.921 303.199 178.312 303.462C177.8 303.711 177.288 304.057 176.68 304.32C156.704 317.351 168.629 347.867 182.255 356.707C177.109 357.647 171.88 358.754 170.427 359.875L170.247 360.041C173.941 362.268 177.8 364.163 181.826 365.795C187.318 367.594 193.141 369.212 195.714 369.904V369.987C202.818 371.446 210.083 371.966 217.322 371.536C255.308 368.88 286.433 339.982 292.091 301.913L292.603 304.14C292.866 305.689 293.198 307.322 293.378 308.94V309.023C293.544 309.798 293.627 310.573 293.724 311.264V311.596C293.807 312.371 293.89 313.145 293.89 313.837C293.973 314.778 294.056 315.719 294.056 316.659V318.043C294.056 318.458 294.152 318.969 294.152 319.398C294.152 319.924 294.056 320.436 294.056 320.947V322.151C294.056 322.746 293.973 323.258 293.973 323.866C293.973 324.212 293.973 324.558 293.89 324.973C293.89 325.582 293.807 326.176 293.807 326.868C293.724 327.117 293.724 327.38 293.724 327.629L293.447 329.607C293.447 329.87 293.447 330.119 293.378 330.382C293.281 331.24 293.115 332.014 293.032 332.872V333.038L292.52 335.445V335.694L292.008 338.004C292.008 338.101 291.911 338.281 291.911 338.35C291.754 339.134 291.555 339.91 291.317 340.674V340.923C291.054 341.781 290.805 342.555 290.625 343.33C290.542 343.413 290.542 343.496 290.542 343.496L289.767 346.069C289.435 346.926 289.172 347.701 288.827 348.559C288.481 349.417 288.232 350.274 287.886 351.049C287.54 351.907 287.194 352.667 286.862 353.539H286.765C286.433 354.3 286.074 355.157 285.659 355.932C285.587 356.137 285.499 356.336 285.396 356.527C285.313 356.61 285.313 356.707 285.23 356.79C279.559 368.142 271.306 378.006 261.132 385.591C260.441 386.02 259.763 386.545 259.071 387.057C258.905 387.223 258.656 387.306 258.476 387.472C257.863 387.925 257.236 388.359 256.595 388.772L256.844 389.284H256.941L260.537 388.772H260.62C262.848 388.426 265.075 387.998 267.302 387.569C267.911 387.486 268.588 387.306 269.197 387.14L270.401 386.877C270.995 386.794 271.59 386.628 272.199 386.545C272.711 386.365 273.223 386.269 273.734 386.116C282.311 384.041 290.625 381.219 298.607 377.886C284.826 396.655 266.499 411.612 245.348 421.35C255.225 420.658 265.075 419.04 274.592 416.287C309.04 406.159 338.135 382.911 355.614 351.547C352.084 371.401 344.209 390.23 332.554 406.687C340.864 401.205 348.542 394.822 355.448 387.652C374.64 367.616 387.239 342.185 391.553 314.778C394.458 328.335 395.316 342.306 394.043 356.098C455.933 269.764 399.175 180.249 375.423 156.677C375.34 156.497 375.257 156.414 375.257 156.248C375.174 156.331 375.174 156.331 375.174 156.414C375.174 156.331 375.174 156.331 375.077 156.248C375.077 157.272 374.994 158.295 374.911 159.333C374.674 161.253 374.388 163.167 374.054 165.074C373.639 166.955 373.113 168.85 372.601 170.745C371.993 172.544 371.315 174.425 370.526 176.223C369.742 177.999 368.889 179.744 367.967 181.452C366.053 184.813 363.845 187.998 361.369 190.97C360.082 192.505 358.713 193.875 357.329 195.258C356.521 195.997 355.69 196.712 354.839 197.402L352.875 199.117C351.344 200.325 349.741 201.439 348.075 202.451C346.436 203.507 344.746 204.481 343.012 205.37C341.213 206.228 339.415 207.002 337.617 207.777C333.954 209.17 330.164 210.203 326.301 210.862C324.323 211.208 322.359 211.374 320.463 211.554C319.096 211.65 317.726 211.706 316.355 211.72C314.405 211.693 312.457 211.577 310.517 211.374C308.559 211.22 306.613 210.933 304.693 210.516C302.749 210.163 300.831 209.678 298.953 209.064H298.856C300.751 208.884 302.632 208.718 304.527 208.372C308.388 207.703 312.177 206.67 315.843 205.287C317.724 204.595 319.523 203.738 321.238 202.88C323.036 202.022 324.669 201.082 326.384 200.058C328.016 198.951 329.635 197.831 331.184 196.627C332.734 195.424 334.186 194.137 335.556 192.768C337.008 191.481 338.295 190.029 339.581 188.563C340.868 187.027 342.071 185.478 343.178 183.942C343.358 183.679 343.537 183.334 343.703 183.085C344.561 181.701 345.419 180.332 346.193 178.962C348.084 175.55 349.631 171.959 350.814 168.241C351.422 166.443 351.851 164.562 352.28 162.667C352.626 160.702 352.972 158.821 353.138 156.926C353.304 154.961 353.484 152.983 353.484 151.102C353.484 149.719 353.387 148.349 353.304 146.98C353.133 145.059 352.902 143.145 352.612 141.239C352.279 139.306 351.854 137.39 351.339 135.498C350.731 133.7 350.136 131.804 349.444 130.006C348.753 128.208 347.909 126.409 347.051 124.694C346.097 122.979 345.156 121.263 344.132 119.631C343.037 118.028 341.893 116.46 340.702 114.928C339.415 113.461 338.129 111.995 336.759 110.543C336.037 109.807 335.295 109.092 334.532 108.398C330.659 105.397 326.647 102.575 322.608 100.002C322.053 99.6815 321.481 99.3951 320.892 99.1438C318.349 97.5867 315.609 96.3632 312.744 95.5333Z" fill="#E0234E"/>
</g>
<defs>
<clipPath id="clip0_1_41">
<rect width="332" height="332" fill="white" transform="translate(90 90)"/>
</clipPath>
</defs>
</svg>
